<svg width="206" height="60" viewBox="0 0 206 60" fill="none" xmlns="http://www.w3.org/2000/svg">
<g clip-path="url(#clip0)">
<path d="M190.05 21.525H202.275L203.175 20.7L205.2 21.375V22.875V40.725H202.35V39.75H191.1L190.05 40.725H187.275V20.925H190.05V21.525V21.525ZM202.425 38.475V22.8H190.125V38.475H202.425ZM198.225 34.125V33.225H199.875C199.65 32.925 199.425 32.6249 199.275 32.3249C196.65 33.0749 193.95 33.375 191.325 33.75L190.575 32.025C192.075 32.025 193.8 32.0249 195.3 31.9499V30.8249H193.125V31.275H191.1V25.5H193.125V25.9499H195.3V24.9H190.575V23.775H195.3V22.8H197.175V23.775H201.225V24.9H197.175V25.9499H199.35L200.025 25.275L201.45 25.875V26.475V31.35H200.025C201.075 31.725 201.825 32.85 201.825 32.85C201.825 32.85 201.15 33.3 200.55 33.675V34.1999H201.9V35.25H200.55C200.55 35.25 200.55 36.825 200.55 37.275C200.55 38.775 198.3 38.4 198.3 38.4L196.8 37.725V36.9H198.3V35.4H194.4C195.675 35.925 196.05 37.35 196.05 37.35H193.95C193.95 37.35 193.575 35.85 193.35 35.4H190.65V34.35H198.225V34.125ZM195.3 27.975V27H193.125V28.05H195.3V27.975ZM195.3 29.85V28.9499H193.125V29.85H195.3ZM199.35 27.975V27H197.175V28.05H199.35V27.975ZM199.35 29.85V28.9499H197.175V29.85H199.35ZM199.05 31.725C198.825 31.425 198.525 31.275 198.3 30.975L198.375 30.9H197.175V31.875C197.7 31.8 198.45 31.8 199.05 31.725ZM199.35 30.9H198.525C198.75 30.9 199.125 31.05 199.35 31.125V30.9Z" fill="white"/>
<path d="M150.45 38.325C148.8 37.425 147.45 36.225 146.4 34.65C147.6 32.625 148.875 26.85 148.875 26.85H150.525V25.425L148.2 23.925L147.15 25.35H144.15C144.45 24.525 144.975 22.575 144.975 22.575L145.35 21.15L142.65 20.55L142.575 21.075C142.35 22.95 141.975 24.675 141.525 26.25L140.475 25.5L139.425 26.25C140.4 24.975 141.525 23.1 141.6 22.95L142.275 21.825L139.875 20.7L139.65 21.225C139.425 21.675 139.2 22.2 138.975 22.725L137.85 21.9L136.875 23.25V20.475H134.55V23.25H131.55V24.675H134.55V26.625H130.8V28.05H135.45C135.075 28.425 134.7 28.95 134.325 29.325H131.775V30.75H132.825C132.15 31.35 131.475 31.875 130.875 32.325L130.425 32.625L131.175 33.75L131.625 33.525C132.975 32.775 134.25 31.8 135.375 30.75H137.55C137.4 30.975 137.1 31.275 136.875 31.5H135.3V33.6C133.575 33.825 132.15 33.975 131.325 34.05L130.575 34.125V36.825L132.9 36.375C132.9 36.375 134.55 36 135.3 35.775V37.875H132.45V39.225L135.3 40.725C137.475 40.5 137.625 39.15 137.625 38.025V35.25C139.2 34.875 140.625 34.5 141.975 34.125L142.425 33.975L142.275 32.625L141.75 32.7C141.075 32.775 140.475 32.85 139.875 33H139.65C138.975 33.075 138.3 33.225 137.625 33.3V33L140.55 30.75L140.925 31.05L141.15 31.275L141.45 30.975C141.825 30.525 142.275 30 142.575 29.4C142.95 31.425 143.475 33.15 144.15 34.65C142.95 36.6 141.45 38.1 139.425 39.3L138.975 39.525L139.575 40.725L140.025 40.5C142.2 39.45 143.85 38.25 145.2 36.6C146.175 38.1 147.375 39.375 148.8 40.425L149.4 40.875L151.35 38.775L150.45 38.325ZM146.25 26.85C145.95 29.025 145.575 30.75 144.975 32.25C144.3 30.75 143.775 29.1 143.4 27.075L143.475 26.85H146.25V26.85ZM136.725 26.25V24.75H137.7C137.4 25.275 137.025 25.8 136.725 26.25ZM140.85 28.2C140.7 28.65 140.55 29.025 140.4 29.4L139.5 28.5L138.675 29.4H136.8C137.175 29.025 137.55 28.575 137.925 28.2H140.85Z" fill="white"/>
<path d="M170.625 34.5H178.5V36H170.625V40.875H168.3V36H164.625C164.025 37.425 162.975 39 161.7 40.725L159.525 39.225C160.425 38.025 161.175 36.975 161.7 36H159.45V34.5H168.375V32.925H163.725V33.375H161.1V26.25L160.35 27L158.55 25.275C160.425 23.475 161.775 21.9 162.675 20.625L164.55 22.2L164.25 22.65H168.375V21.15H170.85L172.65 22.65H177.9V24.075H170.925V25.575H177.075V27H170.925V28.5H176.925V30H170.85V31.425H177.9V32.85H170.775V34.5H170.625ZM168.3 24.075H163.65V25.575H168.3V24.075ZM168.3 27.075H163.65V28.575H168.3V27.075ZM163.65 31.425H168.3V30H163.65V31.425Z" fill="white"/>
<path d="M175.05 39.825C176.475 39.825 177.675 38.625 177.675 37.2H172.425C172.425 38.7 173.625 39.825 175.05 39.825Z" fill="white"/>
<path d="M122.7 37.2C119.55 36.45 116.775 35.175 114.6 33.525C116.7 31.275 118.2 28.575 119.25 25.2H123V23.775L120.375 21.825L119.175 23.475H102.75V25.2H107.025C107.85 28.5 109.2 31.35 111.15 33.675C109.275 35.625 106.425 37.65 103.05 38.7L102.45 38.925L102.825 40.5L103.65 40.275C107.475 39.3 110.25 37.425 112.725 35.4C118.275 39.675 121.95 40.725 121.95 40.725L123.375 37.425L122.7 37.2ZM116.25 25.125C115.5 27.75 114.3 29.925 112.725 31.8C110.925 29.925 109.575 27.675 108.75 25.125H116.25Z" fill="white"/>
<path d="M112.725 20.625C111.225 20.625 110.1 21.825 110.1 23.4H115.425C115.425 21.9 114.225 20.625 112.725 20.625Z" fill="white"/>
<path d="M13.05 55.5L12.75 58.95H4.5V58.5C4.875 58.5 5.1 58.5 5.25 58.425C5.4 58.35 5.475 58.2 5.475 57.975V50.475C5.475 50.1 5.175 49.875 4.5 49.875V49.5H12.525L12.75 52.875H12.075C11.7 51.75 11.4 51.075 11.25 50.85C10.8 50.25 9.9 49.95 8.7 49.95H8.25C7.65 49.95 7.35 50.175 7.35 50.625V53.775H7.65C9.225 53.775 10.05 53.175 10.05 51.9H10.725V56.175H10.05C10.05 54.9 9.225 54.225 7.65 54.225H7.35V57.975C7.35 58.275 7.5 58.425 7.8 58.5C7.875 58.5 8.25 58.5 8.775 58.5C9.975 58.5 10.875 58.2 11.475 57.525C11.775 57.15 12.15 56.475 12.525 55.425H13.05V55.5Z" fill="white"/>
<path d="M29.4751 48.375C30.0001 48.525 30.3751 48.675 30.7501 48.75C31.2001 48.9 31.5001 48.975 31.5001 49.125C31.5001 49.275 31.3501 49.35 31.1251 49.425C30.9001 49.5 30.8251 49.5 30.7501 49.575C30.4501 50.325 30.1501 51 29.8501 51.525C29.9251 51.525 30.0001 51.525 30.0001 51.6C30.3001 51.675 30.4501 51.75 30.4501 51.825C30.4501 51.975 30.3751 52.125 30.2251 52.2C30.1501 52.275 30.0751 52.35 30.0751 52.5V59.475C30.0751 59.625 29.8501 59.775 29.4751 59.85C29.2501 59.85 29.1751 59.85 29.0251 59.85C28.7251 59.85 28.5751 59.7 28.5751 59.475C28.6501 58.5 28.6501 57.525 28.6501 56.625V53.325C28.2001 53.925 27.6751 54.45 27.0001 54.975L26.8501 54.825C27.3001 54.15 27.8251 53.25 28.3501 52.125C28.7251 51 29.1001 49.8 29.4751 48.375ZM37.2751 52.2C36.4501 52.725 35.3251 53.25 33.9001 53.775V57.6C33.9001 57.9 33.9751 58.05 34.1251 58.125C34.4251 58.2 34.8751 58.2 35.4751 58.2C35.8501 58.2 36.1501 58.125 36.3751 58.05C36.6001 57.975 36.6751 57.9 36.7501 57.825C36.8251 57.75 36.8251 57.525 36.9001 57.225C36.9751 56.85 37.0501 56.4 37.2001 55.8L37.5001 55.875C37.5001 56.475 37.5751 56.925 37.5751 57.075C37.5751 57.45 37.6501 57.75 37.8751 57.9C38.1751 58.125 38.3251 58.275 38.3251 58.425C38.3251 58.725 38.1751 58.95 37.8751 59.1C37.6501 59.25 37.4251 59.325 37.2001 59.325C36.7501 59.4 36.2251 59.475 35.4751 59.475C34.3501 59.475 33.6001 59.4 33.2251 59.325C32.9251 59.25 32.7001 59.1 32.6251 58.875C32.5501 58.725 32.4751 58.425 32.4751 57.975V50.1C32.4751 49.575 32.4001 49.05 32.3251 48.6C32.7001 48.675 33.2251 48.675 33.7501 48.825C34.2751 48.9 34.5001 48.975 34.5001 49.125C34.5001 49.275 34.3501 49.425 34.1251 49.5C33.9751 49.575 33.9001 49.65 33.9001 49.8V53.325C34.2001 53.1 34.5001 52.875 34.7251 52.575C35.4001 51.975 36.0001 51.375 36.4501 50.625C36.9001 50.925 37.3501 51.225 37.7251 51.45C38.1001 51.75 38.3251 51.9 38.3251 52.05C38.3251 52.2 38.2501 52.2 38.1001 52.2H37.2751Z" fill="white"/>
<path d="M50.8501 50.175C51.2251 50.25 51.8251 50.25 52.5751 50.25V49.5C52.5751 49.2 52.5751 48.825 52.5001 48.45C53.0251 48.525 53.4751 48.6 54.0001 48.675C54.3001 48.675 54.4501 48.75 54.4501 48.9C54.4501 48.975 54.3751 48.975 54.1501 49.05C53.9251 49.125 53.8501 49.275 53.8501 49.35V50.1C53.9251 50.025 54.0001 49.95 54.0751 49.875C54.3001 49.575 54.4501 49.425 54.5251 49.425C54.6751 49.425 54.8251 49.575 55.1251 49.875L55.2001 49.95C55.4251 49.575 55.5751 49.2 55.8001 48.75C56.2501 48.975 56.6251 49.2 56.9251 49.35C57.3001 49.575 57.4501 49.725 57.4501 49.8C57.4501 49.95 57.3001 49.95 57.0751 49.95L56.7001 49.875C56.0251 50.775 55.5001 51.45 55.0501 51.975H55.6501C55.6501 51.975 55.8001 51.825 55.9501 51.6C56.1751 51.3 56.3251 51.15 56.4001 51.15C56.5501 51.15 56.7751 51.3 57.0001 51.6C57.0751 51.45 57.0751 51.375 57.1501 51.225C57.4501 50.4 57.6751 49.35 57.8251 48.15C58.2751 48.3 58.6501 48.375 59.1001 48.525C59.4751 48.675 59.7001 48.75 59.7001 48.9C59.7001 49.05 59.6251 49.125 59.4001 49.125C59.1751 49.2 59.0251 49.2 59.0251 49.275C58.8001 49.95 58.5751 50.55 58.2751 51.075H59.7001C59.7001 51.075 59.8501 50.925 60.0751 50.7C60.3751 50.325 60.6001 50.1 60.7501 50.1C60.8251 50.1 61.1251 50.325 61.5751 50.775C61.8751 51 62.0251 51.225 62.0251 51.3C62.0251 51.45 61.9501 51.45 61.8001 51.45H61.2001C61.1251 52.95 60.9001 54.15 60.6001 54.9C60.3751 55.65 60.0751 56.25 59.7001 56.775C59.8501 56.925 60.0001 57.075 60.1501 57.225C60.7501 57.675 61.3501 58.125 62.1001 58.425L62.0251 58.65C61.7251 58.65 61.5001 58.875 61.3501 59.325C61.2001 59.625 61.1251 59.775 61.0501 59.775C60.8251 59.775 60.3751 59.475 59.7001 58.8C59.4001 58.425 59.1001 58.125 58.8751 57.825C58.6501 58.05 58.4251 58.2 58.1251 58.425C57.3001 59.025 56.4001 59.475 55.4251 59.85L55.2751 59.625C55.8751 59.325 56.4751 58.875 57.0751 58.35C57.5251 57.975 57.9751 57.45 58.2751 56.925C58.1251 56.625 57.9751 56.25 57.9001 55.95C57.6001 54.9 57.4501 53.85 57.3751 52.65C57.0751 53.1 56.7001 53.475 56.3251 53.925C56.4751 54.075 56.5501 54.225 56.5501 54.3C56.5501 54.45 56.4001 54.45 56.0251 54.525C55.7251 54.525 55.5751 54.6 55.5001 54.6C55.1251 54.825 54.8251 54.975 54.6001 55.125C54.9751 55.2 55.2001 55.275 55.2001 55.425C55.2001 55.575 55.1251 55.65 54.9001 55.725H54.8251C55.5751 55.575 56.3251 55.425 57.0751 55.275L57.1501 55.5C56.3251 55.95 55.4251 56.325 54.6001 56.625V58.5C54.6001 59.025 54.4501 59.325 54.1501 59.55C53.7751 59.775 53.4001 59.925 53.0251 59.925C52.9501 59.925 52.8751 59.85 52.8001 59.625C52.7251 59.25 52.3501 58.95 51.6751 58.575L51.7501 58.35C52.3501 58.425 52.8001 58.5 53.1001 58.5C53.2501 58.5 53.3251 58.425 53.3251 58.35V57.225C52.8751 57.375 52.5001 57.45 52.0501 57.525C51.8251 57.525 51.7501 57.6 51.7501 57.675C51.7501 57.75 51.7501 57.75 51.6751 57.825C51.6751 57.9 51.6001 57.975 51.5251 57.975C51.3751 57.975 51.1501 57.675 50.9251 57.15C50.8501 57 50.7751 56.7 50.6251 56.4C51.5251 56.325 52.4251 56.25 53.2501 56.1C53.2501 55.875 53.1751 55.5 53.1751 54.975C53.4751 55.05 53.7751 55.05 54.0001 55.125C54.1501 54.825 54.2251 54.6 54.3751 54.225H53.9251C53.4001 54.225 52.8751 54.225 52.4251 54.3L52.3501 54.075C51.8251 54.3 51.2251 54.525 50.6251 54.75L50.4751 54.6C51.6751 53.925 52.5751 53.25 53.3251 52.575L53.4001 52.5H52.2751C51.6001 52.5 51.0751 52.5 50.7751 52.575L50.5501 52.05C50.9251 52.125 51.5251 52.125 52.2751 52.125H52.6501V50.625C51.9751 50.625 51.4501 50.625 51.1501 50.7L50.8501 50.175ZM56.1001 53.7C56.3251 53.25 56.5501 52.875 56.7001 52.425H54.6751C54.5251 52.575 54.3001 52.725 54.1501 52.875C53.8501 53.175 53.4751 53.475 52.9501 53.7C53.2501 53.7 53.6251 53.775 54.0001 53.775H54.3751C54.5251 53.625 54.6001 53.55 54.6751 53.475C54.9001 53.25 55.1251 53.1 55.2001 53.1C55.3501 53.1 55.5751 53.25 55.9501 53.625C56.0251 53.7 56.0251 53.7 56.1001 53.7ZM53.8501 51.9C54.2251 51.45 54.5251 51.075 54.7501 50.625H53.8501V51.9ZM57.6751 52.275C57.7501 52.725 57.8251 53.25 57.9751 53.85C58.2001 54.6 58.4251 55.2 58.7251 55.8C58.8001 55.875 58.8001 55.95 58.8751 56.025C59.1001 55.575 59.2501 55.05 59.4001 54.6C59.6251 53.775 59.7751 52.8 59.7751 51.675H58.0501C57.9751 51.825 57.9001 51.975 57.8251 52.125C57.7501 52.125 57.7501 52.2 57.6751 52.275Z" fill="white"/>
<path d="M77.6999 48.45C77.9999 48.6 78.2999 48.75 78.5249 48.9C78.8249 49.05 78.9749 49.2 78.9749 49.275C78.9749 49.35 78.8999 49.35 78.7499 49.425C78.5249 49.425 78.4499 49.425 78.3749 49.5C78.1499 49.575 77.9249 49.575 77.6999 49.65C77.4749 49.65 77.1749 49.725 76.8749 49.725V50.7H77.0249C77.0249 50.7 77.0999 50.625 77.2499 50.475C77.4749 50.25 77.6249 50.1 77.6999 50.1C77.7749 50.1 77.9249 50.25 78.2999 50.55C78.5249 50.7 78.5999 50.85 78.5999 50.925C78.5999 51.075 78.5249 51.15 78.4499 51.15H76.8749V52.425H77.0999C77.0999 52.425 77.1749 52.35 77.3249 52.2C77.5499 51.975 77.6999 51.825 77.7749 51.825C77.8499 51.825 77.9999 51.975 78.3749 52.275C78.5999 52.5 78.6749 52.575 78.6749 52.65C78.6749 52.8 78.5999 52.8 78.5249 52.8H76.9499V53.85H82.9499L83.0249 52.8C82.4999 52.8 82.0499 52.8 81.6749 52.8L81.4499 52.275C81.8999 52.35 82.4249 52.35 82.9499 52.35L83.0249 51.15C82.4249 51.15 81.9749 51.15 81.5999 51.225L81.3749 50.7C81.8249 50.775 82.3499 50.775 82.9499 50.775L83.0249 49.725C82.4999 49.725 81.9749 49.725 81.5999 49.8L81.3749 49.275C81.9749 49.35 82.4999 49.35 82.8749 49.35C83.0249 49.2 83.1749 49.05 83.3249 48.9C83.4749 48.75 83.6249 48.6 83.7749 48.6C83.9249 48.6 84.1499 48.75 84.4499 48.975C84.8249 49.275 84.9749 49.425 84.9749 49.5C84.9749 49.65 84.8249 49.725 84.5999 49.875C84.3749 50.025 84.2249 50.1 84.2249 50.25L84.0749 53.175C84.2249 53.1 84.2999 53.025 84.3749 53.025C84.4499 53.025 84.7499 53.175 85.1249 53.55C85.4999 53.85 85.6499 54.075 85.6499 54.15C85.6499 54.225 85.5749 54.3 85.3499 54.375C85.1249 54.375 84.9749 54.375 84.9749 54.45C84.5999 54.675 84.0749 54.975 83.4749 55.2L83.3249 55.125C83.5499 54.75 83.6999 54.375 83.8499 54H75.4499C75.4499 54.3 75.4499 54.45 75.3749 54.6C75.2999 54.9 75.2249 55.05 75.0749 55.2C74.9999 55.275 74.9249 55.275 74.8499 55.275C74.6249 55.275 74.3999 55.2 74.2499 55.05C74.0999 54.9 74.0249 54.75 74.0249 54.525C74.0249 54.45 74.0999 54.3 74.3249 54.15C74.5499 54 74.6999 53.85 74.8499 53.7C74.9999 53.55 75.0749 53.325 75.1499 53.025H75.3749V53.55H75.6749L75.5999 50.625C75.5999 50.025 75.5249 49.425 75.4499 48.825L76.6499 49.275C76.7999 49.2 76.9499 49.05 77.0999 48.975C77.4749 48.9 77.6249 48.675 77.6999 48.45ZM76.3499 54.9C76.8749 54.975 77.4749 55.05 78.0749 55.05H81.0749C81.2249 54.9 81.2999 54.825 81.3749 54.75C81.5999 54.525 81.7499 54.45 81.8999 54.45C82.0499 54.45 82.2749 54.6 82.6499 54.975C83.0249 55.275 83.2499 55.5 83.2499 55.65C83.2499 55.725 83.0999 55.8 82.7249 55.8C82.4249 55.8 82.2749 55.875 82.1999 55.875C81.7499 56.1 81.3749 56.25 80.9999 56.4C81.0749 56.475 81.0749 56.475 81.0749 56.55C81.0749 56.7 80.9999 56.775 80.7749 56.85C80.6249 56.925 80.4749 56.925 80.4749 57H83.1749C83.1749 57 83.3249 56.85 83.6249 56.475C83.9249 56.1 84.0749 55.875 84.1499 55.875C84.2999 55.875 84.5999 56.025 84.8999 56.4C85.2749 56.775 85.4249 57 85.4249 57.075C85.4249 57.225 85.3499 57.225 85.1999 57.225H80.4749V58.425C80.4749 58.95 80.3249 59.325 80.0249 59.475C79.6499 59.7 79.2749 59.85 78.8999 59.85C78.7499 59.85 78.6749 59.7 78.6749 59.475C78.5999 59.1 78.1499 58.725 77.3249 58.35L77.3999 58.125C78.0749 58.275 78.5999 58.275 78.8999 58.275C79.1249 58.275 79.1999 58.2 79.1999 58.125V57.15H75.9749C75.2249 57.15 74.7749 57.15 74.4749 57.225L74.2499 56.925C74.6249 57 75.2249 57 75.9749 57H79.1999C79.1999 56.775 79.1249 56.4 79.0499 55.95C79.7249 56.025 80.1749 56.175 80.3249 56.175C80.5499 55.95 80.7749 55.65 80.9999 55.35H77.9249C77.3999 55.35 76.8749 55.35 76.4249 55.425L76.3499 54.9ZM80.3249 50.925C80.6249 51.075 80.8499 51.225 81.0749 51.3C81.3749 51.45 81.5249 51.525 81.5249 51.6C81.5249 51.675 81.4499 51.75 81.2999 51.75C81.0749 51.75 80.9999 51.75 80.9999 51.825C80.9249 51.9 80.8499 51.975 80.7749 51.975C80.9999 52.125 81.0749 52.2 81.2249 52.35C81.3749 52.5 81.4499 52.65 81.4499 52.875C81.4499 53.025 81.3749 53.175 81.2999 53.325C81.2249 53.475 81.0749 53.55 80.9249 53.55C80.7749 53.55 80.5499 53.325 80.1749 52.8C80.0999 52.725 80.0999 52.65 80.0249 52.65C79.6499 52.875 79.1249 53.175 78.3749 53.4L78.2999 53.25C78.7499 52.95 79.1249 52.575 79.4999 52.2C79.2749 51.975 78.9749 51.825 78.7499 51.675L78.8249 51.525C79.1999 51.6 79.5749 51.675 79.8749 51.75C80.0999 51.45 80.2499 51.225 80.3249 50.925ZM80.3999 48.45C80.6999 48.6 80.9249 48.75 81.1499 48.825C81.4499 48.975 81.5999 49.05 81.5999 49.125C81.5999 49.2 81.5249 49.275 81.3749 49.275C81.1499 49.275 81.0749 49.275 81.0749 49.35C81.0749 49.425 80.9999 49.425 80.9999 49.5C81.1499 49.575 81.2249 49.725 81.2999 49.8C81.4499 49.95 81.5249 50.1 81.5249 50.325C81.5249 50.475 81.4499 50.625 81.3749 50.775C81.2999 50.925 81.1499 51 80.9999 51C80.8499 51 80.6249 50.775 80.3249 50.25C80.0249 50.55 79.5749 50.775 78.8999 51.075L78.8249 50.925C79.1999 50.55 79.4999 50.175 79.7999 49.8V49.725C79.5749 49.5 79.2749 49.275 78.9749 49.05L79.0499 48.9C79.4999 48.975 79.8749 49.125 80.1749 49.2C80.2499 48.9 80.3249 48.675 80.3999 48.45Z" fill="white"/>
<path d="M105.075 54.15C105.075 54.525 104.925 54.9 104.7 55.125C104.4 55.425 104.1 55.5 103.725 55.5C103.35 55.5 102.975 55.35 102.75 55.125C102.45 54.825 102.375 54.525 102.375 54.15C102.375 53.775 102.525 53.475 102.75 53.175C103.05 52.875 103.35 52.8 103.725 52.8C104.1 52.8 104.475 52.95 104.7 53.175C105 53.475 105.075 53.775 105.075 54.15Z" fill="white"/>
<path d="M122.475 49.725C122.85 49.8 123.45 49.8 124.2 49.8H126.675V49.575C126.675 49.2 126.6 48.825 126.525 48.45C127.125 48.525 127.65 48.6 128.175 48.675C128.475 48.675 128.7 48.75 128.7 48.9C128.7 48.975 128.625 49.05 128.4 49.125C128.175 49.2 128.025 49.35 128.025 49.425V49.8H130.2C130.2 49.8 130.35 49.65 130.575 49.35C130.875 49.05 131.025 48.825 131.1 48.825C131.25 48.825 131.475 48.975 131.775 49.275C132.075 49.575 132.225 49.8 132.225 49.875C132.225 50.025 132.15 50.1 132.075 50.1H128.1V51.075H129.675C129.675 51.075 129.825 50.925 130.05 50.7C130.35 50.4 130.5 50.25 130.5 50.25C130.65 50.25 130.8 50.4 131.1 50.7C131.4 51 131.55 51.225 131.55 51.3C131.55 51.45 131.475 51.525 131.325 51.525H128.1V52.575H131.025C131.025 52.575 131.175 52.425 131.4 52.125C131.7 51.825 131.85 51.6 131.925 51.6C132.075 51.6 132.3 51.75 132.6 52.125C132.9 52.425 133.05 52.65 133.05 52.725C133.05 52.875 132.975 52.95 132.825 52.95H127.575C127.05 53.475 126.525 53.925 126 54.3L126.075 54.375C126.225 54.525 126.3 54.75 126.3 55.05C126.3 55.2 126.225 55.35 126.15 55.5C126 55.575 125.925 55.65 125.775 55.65C125.625 55.65 125.475 55.425 125.175 55.05C124.875 54.675 124.425 54.3 123.825 53.925L123.9 53.775C124.5 53.775 125.025 53.85 125.4 54C125.475 54 125.55 54.075 125.625 54.075C125.775 53.775 126 53.475 126.15 53.1H123.75C123 53.1 122.55 53.1 122.25 53.175L122.025 52.65C122.4 52.725 123 52.725 123.75 52.725H126.825V51.675H125.1C124.425 51.675 123.9 51.675 123.6 51.675L123.375 51.15C123.75 51.225 124.35 51.225 125.1 51.225H126.825V50.25H124.35C123.6 50.25 123.15 50.25 122.85 50.325L122.475 49.725ZM124.425 57.15C124.8 57.375 125.1 57.525 125.4 57.675C125.775 57.9 125.925 57.975 125.925 58.125C125.925 58.275 125.85 58.275 125.7 58.35C125.475 58.35 125.325 58.35 125.325 58.425C124.95 58.65 124.65 58.875 124.2 59.025C123.75 59.25 123 59.475 122.1 59.7L122.025 59.475C122.55 59.175 123.075 58.8 123.45 58.425C123.9 57.975 124.275 57.525 124.425 57.15ZM128.475 53.175C128.85 53.325 129.225 53.475 129.6 53.55C129.975 53.7 130.125 53.85 130.125 54C130.125 54.075 130.05 54.15 129.825 54.15C129.6 54.15 129.525 54.225 129.525 54.225C128.85 54.75 128.025 55.2 127.2 55.725C128.4 55.65 129.6 55.575 130.65 55.5C130.5 55.35 130.2 55.125 129.9 54.9L130.05 54.75C130.8 54.9 131.4 55.125 131.85 55.35C132.525 55.65 132.825 55.95 132.825 56.25C132.825 56.55 132.75 56.7 132.6 56.85C132.375 57.075 132.225 57.15 132 57.15C131.85 57.15 131.7 57 131.55 56.775C131.4 56.475 131.175 56.175 130.875 55.875C129.9 56.1 129 56.325 128.025 56.475V59.625C128.025 59.775 127.8 59.925 127.35 60C127.2 60 127.05 60 126.9 60C126.675 60 126.525 59.85 126.525 59.625C126.6 59.175 126.6 58.425 126.6 57.525V56.7C125.625 56.85 124.65 57 123.6 57.075C123.3 57.075 123.15 57.15 123.15 57.225C123.15 57.225 123.15 57.3 123.075 57.375C123.075 57.45 123 57.525 123 57.525C122.85 57.525 122.625 57.225 122.4 56.7C122.325 56.55 122.25 56.325 122.1 55.95C123.45 55.875 124.725 55.875 125.925 55.8C127.125 54.975 127.875 54.075 128.475 53.175ZM128.85 57.3C129.375 57.3 130.05 57.375 130.8 57.6C131.175 57.675 131.475 57.825 131.775 57.975C132.075 58.125 132.15 58.35 132.15 58.575C132.15 58.8 132.075 59.025 131.85 59.25C131.625 59.4 131.475 59.475 131.25 59.475C131.1 59.475 130.95 59.4 130.725 59.175C130.125 58.5 129.45 57.9 128.7 57.525L128.85 57.3Z" fill="white"/>
<path d="M148.65 48.45C149.25 48.525 149.7 48.675 150 48.75C150.225 48.825 150.3 48.975 150.3 49.125C150.3 49.35 150.225 49.575 150 49.875H152.175C152.25 49.65 152.325 49.425 152.4 49.2C152.475 48.975 152.475 48.675 152.55 48.375C152.925 48.45 153.225 48.525 153.6 48.675C153.9 48.75 154.05 48.9 154.05 48.975C154.05 49.05 153.975 49.125 153.75 49.2C153.525 49.2 153.45 49.275 153.45 49.35C153.3 49.5 153.15 49.65 153 49.8C152.925 49.875 152.85 49.95 152.775 49.95H154.65C154.65 49.95 154.8 49.8 154.95 49.575C155.175 49.275 155.325 49.125 155.4 49.125C155.55 49.125 155.7 49.275 156 49.575C156.225 49.875 156.375 50.025 156.375 50.1C156.375 50.25 156.3 50.325 156.15 50.325H155.025C155.175 50.4 155.25 50.55 155.475 50.7C155.775 51 155.85 51.15 155.85 51.225C155.85 51.375 155.775 51.45 155.625 51.45H151.95V52.275H155.175C155.175 52.275 155.325 52.125 155.475 51.9C155.7 51.6 155.85 51.45 155.925 51.45C156.075 51.45 156.225 51.6 156.525 51.9C156.825 52.2 156.975 52.35 156.975 52.425C156.975 52.575 156.9 52.65 156.75 52.65H152.925C153.525 52.875 154.05 53.1 154.65 53.25C155.475 53.4 156.225 53.55 157.05 53.625L156.975 53.85C156.675 53.925 156.45 54.15 156.3 54.525C156.225 54.75 156.075 54.9 156 54.9C155.85 54.9 155.55 54.75 155.025 54.525C154.5 54.3 153.975 54 153.45 53.7C153 53.325 152.625 52.95 152.325 52.575H150.375C150 52.95 149.625 53.25 149.325 53.4C149.7 53.475 149.925 53.475 150.15 53.475H151.725C151.8 53.4 151.875 53.25 151.95 53.025C152.1 52.8 152.175 52.65 152.175 52.65C152.25 52.65 152.4 52.8 152.625 53.1C152.85 53.4 152.925 53.55 152.925 53.625C152.925 53.775 152.85 53.775 152.775 53.775H150C149.775 53.775 149.4 53.775 149.025 53.85L148.95 53.55C148.65 53.7 148.35 53.85 148.05 54C148.425 54.075 148.875 54.225 149.325 54.45H152.925C153.075 54.3 153.15 54.15 153.3 54.075C153.375 54 153.45 53.925 153.6 53.925C153.75 53.925 153.975 54.075 154.35 54.3C154.725 54.6 154.95 54.75 154.95 54.825C154.95 54.9 154.875 54.975 154.725 55.05C154.575 55.125 154.5 55.2 154.5 55.275V57C154.5 57.15 154.275 57.225 153.9 57.3C153.75 57.3 153.6 57.375 153.525 57.375C153.3 57.375 153.15 57.3 153.15 57.075V57H151.35C151.575 57.225 151.875 57.375 152.175 57.525C152.475 57.675 152.85 57.825 153.3 57.975C153.525 57.825 153.675 57.75 153.9 57.6C154.35 57.3 154.725 57 155.025 56.7C155.4 56.925 155.7 57.15 156.075 57.375C156.375 57.6 156.525 57.75 156.525 57.9C156.525 57.975 156.45 58.05 156.375 58.05L155.7 57.975C155.325 58.05 154.8 58.2 154.2 58.275C155.025 58.425 156 58.575 156.975 58.725L156.9 58.95C156.525 59.1 156.3 59.25 156.225 59.475C156.075 59.775 156 59.925 155.925 59.925C155.775 59.925 155.4 59.85 154.95 59.7C154.425 59.55 153.825 59.325 153.225 59.1C152.775 58.875 152.325 58.65 151.95 58.275C151.575 57.975 151.275 57.525 151.05 57H149.4V58.2C150.15 58.125 150.9 58.125 151.575 58.05L151.65 58.2C150.45 58.8 149.25 59.175 147.9 59.475C147.75 59.475 147.675 59.55 147.675 59.55C147.675 59.625 147.675 59.625 147.6 59.7C147.6 59.85 147.525 59.85 147.45 59.85C147.3 59.85 147.075 59.55 146.85 59.025C146.775 58.875 146.7 58.65 146.55 58.275C147.075 58.275 147.6 58.275 148.125 58.2V56.1C148.125 55.2 148.05 54.45 147.975 54C147.825 54.075 147.75 54.075 147.6 54.15C147 54.375 146.4 54.525 145.725 54.675L145.65 54.45C146.325 54.225 146.925 53.925 147.525 53.55C148.05 53.25 148.5 52.8 148.875 52.425H147.6C146.85 52.425 146.4 52.425 146.1 52.5L145.875 51.975C146.25 52.05 146.85 52.05 147.6 52.05H150.825V51.225H149.1C148.425 51.225 147.9 51.225 147.6 51.3L147.375 50.775C147.75 50.85 148.35 50.85 149.1 50.85H150.825V50.1H148.425C147.675 50.1 147.225 50.1 146.925 50.175L146.775 49.725C147.15 49.8 147.75 49.8 148.5 49.8H149.475C149.475 49.725 149.4 49.725 149.4 49.65C149.325 49.35 149.1 48.975 148.8 48.675L148.65 48.45ZM149.175 54.75V55.575H153V54.75H149.175ZM149.175 55.875V56.625H153V55.875H149.175ZM151.8 50.175V50.925H153.9C153.9 50.925 154.05 50.775 154.2 50.55C154.35 50.325 154.5 50.25 154.575 50.175H151.8Z" fill="white"/>
<path d="M169.5 50.175C169.875 50.25 170.475 50.25 171.225 50.25V49.5C171.225 49.2 171.225 48.825 171.15 48.45C171.675 48.525 172.125 48.6 172.65 48.675C172.95 48.675 173.1 48.75 173.1 48.9C173.1 48.975 173.025 48.975 172.8 49.05C172.575 49.125 172.5 49.275 172.5 49.35V50.1C172.575 50.025 172.65 49.95 172.725 49.875C172.95 49.575 173.1 49.425 173.175 49.425C173.325 49.425 173.475 49.575 173.775 49.875L173.85 49.95C174.075 49.575 174.225 49.2 174.45 48.75C174.9 48.975 175.275 49.2 175.575 49.35C175.95 49.575 176.1 49.725 176.1 49.8C176.1 49.95 175.95 49.95 175.725 49.95L175.35 49.875C174.675 50.775 174.15 51.45 173.7 51.975H174.3C174.3 51.975 174.45 51.825 174.6 51.6C174.825 51.3 174.975 51.15 175.05 51.15C175.2 51.15 175.425 51.3 175.65 51.6C175.725 51.45 175.725 51.375 175.8 51.225C176.1 50.4 176.325 49.35 176.475 48.15C176.925 48.3 177.3 48.375 177.75 48.525C178.125 48.675 178.35 48.75 178.35 48.9C178.35 49.05 178.275 49.125 178.05 49.125C177.825 49.2 177.675 49.2 177.675 49.275C177.45 49.95 177.225 50.55 176.925 51.075H178.35C178.35 51.075 178.5 50.925 178.725 50.7C179.025 50.325 179.25 50.1 179.4 50.1C179.475 50.1 179.775 50.325 180.225 50.775C180.525 51 180.675 51.225 180.675 51.3C180.675 51.45 180.6 51.45 180.45 51.45H179.85C179.775 52.95 179.55 54.15 179.25 54.9C179.025 55.65 178.725 56.25 178.35 56.775C178.5 56.925 178.65 57.075 178.8 57.225C179.4 57.675 180 58.125 180.75 58.425L180.675 58.65C180.375 58.65 180.15 58.875 180 59.325C179.85 59.625 179.775 59.775 179.7 59.775C179.475 59.775 179.025 59.475 178.35 58.8C178.05 58.425 177.75 58.125 177.525 57.825C177.3 58.05 177.075 58.2 176.775 58.425C175.95 59.025 175.05 59.475 174.075 59.85L173.925 59.625C174.525 59.325 175.125 58.875 175.725 58.35C176.175 57.975 176.625 57.45 176.925 56.925C176.775 56.625 176.625 56.25 176.55 55.95C176.25 54.9 176.1 53.85 176.025 52.65C175.725 53.1 175.35 53.475 174.975 53.925C175.125 54.075 175.2 54.225 175.2 54.3C175.2 54.45 175.05 54.45 174.675 54.525C174.375 54.525 174.225 54.6 174.15 54.6C173.775 54.825 173.475 54.975 173.25 55.125C173.625 55.2 173.85 55.275 173.85 55.425C173.85 55.575 173.775 55.65 173.55 55.725H173.475C174.225 55.575 174.975 55.425 175.725 55.275L175.8 55.5C174.975 55.95 174.15 56.325 173.25 56.625V58.5C173.25 59.025 173.1 59.325 172.8 59.55C172.425 59.775 172.05 59.925 171.675 59.925C171.6 59.925 171.525 59.85 171.45 59.625C171.375 59.25 171 58.95 170.325 58.575L170.4 58.35C171 58.425 171.45 58.5 171.75 58.5C171.9 58.5 171.975 58.425 171.975 58.35V57.225C171.525 57.375 171.15 57.45 170.7 57.525C170.475 57.525 170.4 57.6 170.4 57.675C170.4 57.75 170.4 57.75 170.325 57.825C170.325 57.9 170.25 57.975 170.175 57.975C170.025 57.975 169.8 57.675 169.575 57.15C169.5 57 169.425 56.7 169.275 56.4C170.175 56.325 171.075 56.25 171.9 56.1C171.9 55.875 171.825 55.5 171.825 54.975C172.125 55.05 172.425 55.05 172.65 55.125C172.8 54.825 172.875 54.6 173.025 54.225H172.575C172.05 54.225 171.525 54.225 171.075 54.3L171 54.075C170.475 54.3 169.875 54.525 169.275 54.75L169.125 54.6C170.325 53.925 171.225 53.25 171.975 52.575L172.05 52.5H170.925C170.175 52.5 169.725 52.5 169.425 52.575L169.2 52.05C169.575 52.125 170.175 52.125 170.925 52.125H171.3V50.625C170.55 50.625 170.1 50.625 169.8 50.7L169.5 50.175ZM174.75 53.7C174.975 53.25 175.2 52.875 175.35 52.425H173.25C173.1 52.575 172.875 52.725 172.725 52.875C172.425 53.175 172.05 53.475 171.525 53.7C171.825 53.7 172.2 53.775 172.575 53.775H172.95C173.1 53.625 173.175 53.55 173.25 53.475C173.475 53.25 173.7 53.1 173.775 53.1C173.925 53.1 174.15 53.25 174.525 53.625C174.675 53.7 174.675 53.7 174.75 53.7ZM172.5 51.9C172.875 51.45 173.175 51.075 173.4 50.625H172.5V51.9ZM176.325 52.275C176.4 52.725 176.475 53.25 176.625 53.85C176.85 54.6 177.075 55.2 177.375 55.8C177.45 55.875 177.45 55.95 177.525 56.025C177.75 55.575 177.975 55.05 178.05 54.6C178.275 53.775 178.425 52.8 178.425 51.675H176.7C176.625 51.825 176.55 51.975 176.475 52.125C176.4 52.125 176.4 52.2 176.325 52.275Z" fill="white"/>
<path d="M197.775 48.3C198.3 48.375 198.825 48.45 199.35 48.525C199.65 48.525 199.8 48.6 199.8 48.75C199.8 48.825 199.725 48.9001 199.5 48.9751C199.275 49.0501 199.2 49.2001 199.2 49.3501V49.95H202.2C202.2 49.95 202.35 49.8 202.575 49.425C202.875 49.05 203.025 48.825 203.1 48.825C203.25 48.825 203.475 48.9751 203.85 49.3501C204.225 49.7251 204.375 49.95 204.375 50.025C204.375 50.175 204.3 50.25 204.15 50.25H198.45C197.85 50.85 197.325 51.375 196.875 51.825C198.3 51.75 199.8 51.675 201.225 51.525C200.925 51.3 200.625 51.0751 200.4 50.8501L200.475 50.625C201.225 50.775 201.9 51.0001 202.35 51.2251C202.8 51.4501 203.175 51.675 203.325 51.9C203.55 52.125 203.625 52.275 203.625 52.5C203.625 52.725 203.55 52.875 203.4 53.025C203.25 53.175 203.1 53.325 202.875 53.325C202.725 53.325 202.5 53.025 202.05 52.425C201.9 52.275 201.75 52.05 201.6 51.9C199.725 52.425 197.55 52.8001 195.15 53.1001C195.6 53.2501 196.05 53.4 196.5 53.625H200.85C201 53.475 201.075 53.4 201.15 53.325C201.375 53.1 201.525 52.95 201.675 52.95C201.825 52.95 202.05 53.1 202.5 53.4C202.875 53.7 203.1 53.925 203.1 54C203.1 54.075 203.025 54.225 202.8 54.375C202.575 54.525 202.425 54.675 202.425 54.825V58.65C202.425 59.1 202.2 59.4 201.75 59.625C201.375 59.775 201.075 59.8501 200.85 59.8501C200.775 59.8501 200.625 59.7 200.55 59.4C200.4 59.025 199.95 58.7251 199.05 58.4251L199.125 58.2C199.875 58.275 200.4 58.275 200.85 58.275C201 58.275 201.075 58.125 201.075 57.9V57.15H196.125V59.4751C196.125 59.6251 195.9 59.7751 195.525 59.8501C195.375 59.8501 195.225 59.8501 195.15 59.8501C194.925 59.8501 194.775 59.7001 194.775 59.4751C194.775 59.0251 194.85 58.575 194.85 58.125V54.675C194.85 54.15 194.85 53.55 194.775 53.025H194.7C194.625 53.025 194.625 53.1 194.625 53.25C194.55 53.4 194.55 53.4751 194.475 53.4751C194.325 53.4751 194.1 53.25 194.025 52.875C193.95 52.65 193.8 52.275 193.65 51.825C194.4 51.825 195.225 51.825 195.975 51.825C196.275 51.375 196.575 50.85 196.8 50.25H194.925C194.25 50.25 193.725 50.25 193.275 50.325L193.05 49.7251C193.8 49.8001 194.475 49.875 195.15 49.875H198.075V49.275C197.85 49.05 197.85 48.675 197.775 48.3ZM196.2 55.2H201.15V54H196.2V55.2ZM196.2 56.8501H201.15V55.5H196.2V56.8501Z" fill="white"/>
<path d="M0.0750383 13.725C0.525038 13.05 2.92504 13.8 3.67504 13.65C4.72504 13.425 6.90004 12.675 7.42504 11.625C7.80004 10.8 9.15004 10.35 9.90004 9.975C10.05 9.9 9.90004 7.8 9.90004 7.5C9.97504 5.925 10.725 3.45 9.45004 2.25C8.77504 1.575 8.25004 1.275 7.80004 1.2C7.87504 1.125 8.02504 0.899999 8.17504 0.599999C8.40004 0.224999 9.60004 0.449999 9.97504 0.449999C10.8 0.524999 11.025 0.749999 11.775 1.35C13.2 2.475 14.475 3.525 15 5.25C14.1 6.6 13.5 7.8 13.2 8.925C13.275 9 13.35 9.075 13.425 9.15C13.35 9.075 14.925 8.625 15.075 8.55C15.975 8.475 16.2 9.075 16.275 9.9C16.2 9.975 16.125 10.125 16.05 10.275C16.725 10.95 17.175 11.475 17.475 11.925C18.9 9.675 20.025 7.575 20.7 5.625C20.325 5.1 19.8 4.575 19.275 3.975C19.35 3.9 19.8 3.825 20.475 3.75C23.7 4.275 25.575 5.625 25.95 7.8C25.575 7.875 24.825 8.475 23.925 9.45L22.725 11.25C22.35 11.625 21.675 12.15 20.925 12.675C20.1 13.2 19.575 13.575 19.275 13.875C20.1 14.925 20.625 15.975 20.925 16.95C20.55 18 20.325 19.2 20.325 20.625C20.4 20.625 20.55 20.7 20.7 20.85C22.35 19.2 23.175 17.925 23.325 16.95V16.125L22.95 15.3C22.275 14.1 21.975 13.35 21.9 13.05C21.9 12.975 21.975 12.9 22.125 12.825C22.5 13.35 23.25 13.725 24.375 14.025C25.2 14.25 25.8 14.55 26.175 14.85C26.55 14.475 26.85 14.1 27 13.8C27 13.725 27.225 13.425 27.6 12.975C27.675 12.75 28.275 12.45 29.25 12.15C29.625 12.15 30 12.075 30.3 11.925C30.825 11.55 31.5 10.8 32.325 9.675C32.85 9.15 33.3 8.775 33.75 8.475C34.275 8.25 34.5 8.1 34.575 8.1C34.95 8.1 35.325 8.1 35.625 8.1C37.425 8.1 39.45 9.075 40.275 10.725C41.025 12.225 40.425 13.575 39.825 15C38.55 17.775 38.7 20.775 37.875 23.625C37.2 25.65 36.15 26.925 34.65 27.525C34.275 27.3 33.75 26.85 33.225 26.325C33 27.675 32.85 28.725 32.85 29.55C32.85 29.775 32.925 30.075 33.075 30.375C33.075 30.75 33.075 31.125 33.075 31.425C32.7 33.075 32.325 35.55 32.025 38.925C32.025 39.15 31.95 39.45 31.8 39.75C31.8 41.475 31.65 42.525 31.425 42.825C31.35 42.825 31.125 42.825 30.825 42.825C30.3 39.15 29.925 35.325 29.625 31.425C29.625 29.55 29.55 27.675 29.4 25.725C29.4 23.85 29.4 21.9 29.4 19.8C29.4 18.975 29.475 18.375 29.625 18C29.625 17.475 29.625 16.875 29.625 16.2C29.4 16.125 29.175 16.05 29.025 15.975C28.65 15.9 27.75 17.4 27.6 17.7C27.15 18.45 26.925 19.35 26.7 20.175C26.4 21.3 26.325 22.425 26.175 23.55C26.025 24.825 26.175 26.175 25.95 27.375C25.65 29.325 24.9 31.425 24 33.15C23.55 33.975 23.1 34.725 22.575 35.475C22.275 35.85 21.75 36.825 21.3 36.975C20.4 37.35 20.55 35.775 20.475 35.175C20.4 34.5 20.025 33 20.325 32.4C20.4 32.175 20.475 31.875 20.55 31.575L20.925 29.1C21 29.325 21.375 29.85 21.975 30.75C22.8 29.325 23.325 27.825 23.55 26.175C23.55 25.95 23.7 25.5 23.625 25.275C23.4 24.375 23.475 23.4 23.475 22.425C22.2 23.4 21.15 25.125 20.325 26.475C19.725 27.525 19.2 29.4 18.075 30C17.25 30.45 16.875 29.4 16.725 28.875C16.425 27.975 16.05 27.15 15.675 26.325C15.15 25.125 14.85 24.375 14.625 24.075C14.7 24 14.85 23.925 15 23.85C15.225 23.85 15.45 23.925 15.6 24.075C16.425 24.675 16.575 24 16.8 23.475C16.125 22.2 19.125 18.6 18 17.55C17.775 17.325 17.55 17.025 17.4 16.725C17.175 17.625 16.575 18.825 15.6 20.175C14.925 21.225 14.25 22.275 13.575 23.25C13.2 23.625 12.675 24 12.15 24.3C11.475 24.975 11.175 25.275 11.1 25.35C10.725 25.725 10.5 26.85 10.5 28.575V31.2C10.5 32.1 10.5 33 10.5 33.825C10.575 34.5 10.8 35.325 11.1 36.45C11.475 37.5 11.7 38.55 11.7 39.525C11.325 39.525 10.8 39.675 10.275 39.9C10.275 39.825 10.2 39.675 10.05 39.525C8.85004 37.35 8.10004 35.625 7.80004 34.2C7.50004 33.75 7.50004 32.7 7.42504 31.35V28.5C6.90004 28.875 6.30004 29.25 5.62504 29.55C4.72504 29.85 3.82504 31.125 2.92504 31.2C2.25004 31.275 2.32504 30.9 2.02504 30.225C1.65004 29.25 0.825038 27.3 1.35004 26.25C1.57504 25.8 1.72504 25.275 1.87504 24.825C1.95004 24.6 1.95004 24.375 2.02504 24.15C2.02504 24.075 2.10004 23.85 2.25004 23.85C2.32504 23.925 2.32504 24.3 2.40004 24.45C2.47504 24.675 2.70004 24.975 3.00004 25.275C3.52504 25.05 3.90004 24.9 4.20004 24.9C4.72504 24.675 5.10004 24.525 5.40004 24.525C6.30004 23.85 7.05004 22.65 7.65004 20.85L8.02504 18.375L7.80004 18.15C7.42504 18.375 6.97504 18.6 6.60004 18.75C6.37504 18.825 5.92504 18.9 5.40004 18.975C3.52504 19.05 1.42504 18 0.900038 16.125C0.750038 15.525 -0.299962 14.325 0.0750383 13.725ZM15.975 17.1C15.975 17.025 16.05 16.95 16.2 16.875C15.375 16.65 14.7 16.35 14.175 16.05C14.1 16.05 13.95 15.975 13.8 15.825C14.625 14.475 15.225 13.575 15.6 12.975C15.375 12.9 15.15 12.825 15 12.75C14.175 13.125 13.875 13.275 13.95 13.125C12.9 13.5 12.225 14.25 11.925 15.15C12.3 15.525 12.675 16.2 12.975 16.95C13.35 17.775 13.725 18.525 14.025 19.2C14.775 18.3 15.45 17.55 15.975 17.1ZM32.775 16.275C32.925 17.025 32.7 18 32.7 18.675C32.7 19.575 32.7 20.475 32.7 21.3L33.075 22.125C33 21.975 33.975 20.325 34.125 20.025C34.425 19.275 34.65 18.525 34.875 17.7C35.1 16.95 35.175 16.125 35.25 15.375C35.325 14.325 35.25 14.175 34.5 13.35C34.05 13.65 33.45 13.8 33.075 14.175C32.85 14.4 32.475 14.7 32.325 15.075C32.175 15.6 32.475 15.6 32.7 16.05C32.7 16.125 32.775 16.2 32.775 16.275Z" fill="white"/>
<path d="M47.2499 12.975C47.4749 12.525 47.9249 12.225 48.5999 12.075H49.4999L52.1999 12.975C52.6499 12.45 53.3249 11.7 54.2249 10.725C54.7499 10.5 55.4999 9.9 56.4749 8.925C57.8999 7.5 58.5749 5.775 60.5999 7.35C64.5749 10.5 59.9249 19.2 59.1749 23.025C58.9499 24.375 58.3499 25.125 57.3749 25.275C56.9999 25.35 56.6999 24.825 56.3249 24.825C55.9499 24.825 55.4249 25.125 55.1249 25.425C54.6749 25.875 54.5999 26.7 54.8249 27.3C54.8999 27.375 54.5999 27.675 54.5249 27.75C54.2249 27.9 54.2249 27.75 53.9999 27.6C53.6249 27.375 53.1749 27.075 52.8749 26.775C52.4249 26.325 52.4249 26.025 51.6749 25.95C51.5999 25.95 51.3749 25.875 50.9999 25.725C49.8749 24.6 49.2749 22.575 49.1999 19.65C49.2749 19.2 49.4249 18.6 49.4249 17.85C49.5749 17.4 49.6499 16.8 49.6499 16.05C47.6249 14.1 46.7999 13.05 47.2499 12.975ZM61.1249 24L61.5749 23.1C62.5499 21.075 63.5999 18.9 64.7249 16.575C65.1749 15.525 65.7749 14.55 66.2249 13.575C66.5999 12.75 67.1249 12 67.4249 11.175C67.5749 10.65 67.1249 10.5 66.9749 10.125C66.8249 9.6 67.4999 9 67.7999 8.55C68.2499 7.875 68.5499 7.125 68.8499 6.375C68.9999 6 70.9499 1.2 69.2249 2.025C68.6999 2.325 68.1749 2.55 67.6499 2.925V2.7C67.6499 2.625 67.7249 2.55 67.8749 2.475L67.6499 2.25C68.1749 1.275 68.7749 0.675 69.4499 0.45L71.2499 0C73.2749 0.675 74.4749 1.95 74.8499 3.825C74.3999 4.725 73.8749 5.475 73.2749 6.075C73.0499 6.6 72.7499 7.125 72.3749 7.65C72.5999 7.8 73.0499 7.875 73.7249 7.875L75.0749 8.325C75.5999 8.625 76.2749 9.375 77.0999 10.8C77.3249 11.025 77.5499 11.325 77.7749 11.7C78.7499 13.05 80.0249 14.325 81.5999 15.525C82.1249 15.975 83.0249 16.5 84.2999 17.1C86.3249 18.075 88.3499 19.05 90.3749 20.025C92.3999 21.15 94.3499 23.1 96.2249 25.875C96.1499 25.875 95.9249 25.95 95.7749 26.1C95.6999 26.1 95.4749 26.025 95.0999 25.875C94.8749 25.875 94.4999 25.8 94.1999 25.65C93.7499 25.65 93.4499 25.575 93.2999 25.425C92.7749 25.425 92.3249 25.5 91.9499 25.65C91.7249 25.65 91.3499 25.65 90.8249 25.65C89.3249 25.65 87.8999 24.75 86.3999 24.75C82.3499 24.75 79.3499 20.85 77.3249 17.55C77.0249 17.025 76.8749 16.5 76.6499 15.975C75.6749 13.95 74.7749 12.675 73.9499 12.15C73.4249 11.7 72.4499 11.475 71.0249 11.475L70.5749 12.375C69.8999 13.725 68.9249 15.9 67.6499 18.9C67.7249 19.05 67.7999 19.125 67.8749 19.125L69.2249 18.225C69.8999 17.55 70.6499 17.1 71.4749 16.875C71.7749 16.725 72.2999 16.65 73.2749 16.65H75.0749C76.4999 17.55 77.3999 18.825 77.7749 20.475C77.6249 20.55 77.3999 20.625 77.0999 20.7C75.9749 21 75.2249 21.15 74.8499 21.375C73.4249 21.9 72.3749 22.5 71.6999 23.175C71.0249 23.625 70.0499 24.3 68.7749 25.2C68.6999 24.975 68.5499 24.75 68.3249 24.525C68.9999 23.85 69.3749 23.475 69.4499 23.4C69.6749 23.175 69.8999 22.8 70.1249 22.275C68.6999 21.6 67.9499 21.225 67.8749 21.15C67.7249 21 67.5749 20.775 67.1999 20.475C65.6249 24.15 63.5249 27.45 60.8999 30.3C58.1249 34.125 54.8999 36.075 51.2249 36.15C50.9999 36.075 50.6249 35.85 50.0999 35.475C51.9749 34.8 54.1499 33.225 56.6249 30.75C58.5749 28.2 60.0749 25.95 61.1249 24ZM56.3999 17.925C57.0749 17.1 57.4499 15.9 57.3749 14.925C57.3749 14.25 57.8249 12.6 56.4749 13.425C56.0999 13.65 55.7249 14.25 55.4249 14.55C54.9749 15 54.5999 15.525 54.2999 16.125C54.2999 16.35 54.3749 16.65 54.5249 17.025V17.925C54.2999 18.45 54.1499 19.35 54.0749 20.625C54.0749 21.6 54.0749 22.575 54.0749 23.55C54.1499 23.625 54.2249 23.7 54.2999 23.775C54.5249 23.1 54.7499 22.275 54.9749 21.3C55.3499 19.8 55.7999 18.75 56.3999 17.925ZM63.5249 28.2C63.5249 28.125 63.5249 28.125 63.5249 28.125C63.2999 27.375 65.0999 26.325 64.5749 28.05C65.6999 28.65 67.6499 28.425 68.9249 28.425C68.9999 28.425 69.1499 28.35 69.3749 28.2C70.7249 27.675 71.9999 27 73.1999 26.175C73.3499 26.1 73.4249 25.875 73.6499 25.5C74.0999 24.825 74.4749 24.3 74.7749 23.925C74.8499 23.775 75.1499 23.7 75.6749 23.7C76.1249 23.7 76.4999 23.7 76.7999 23.7C79.0499 23.925 80.6999 25.5 81.7499 28.425C81.7499 28.5 81.6749 28.65 81.5249 28.875C80.6249 30.675 79.9499 32.1 79.4999 33.15C79.0499 34.5 78.3749 35.85 77.4749 37.2C75.8999 40.35 73.8749 42.6 71.3999 43.95C71.3999 43.8 71.3249 43.725 71.1749 43.5C70.8749 42.375 70.7249 41.25 70.7249 40.125V36.75C71.0249 36.6 71.2499 36.6 71.6249 36.525C71.7749 36.525 71.9999 36.6 72.2999 36.75C73.2749 35.325 74.0999 33.6 74.7749 31.575C74.9999 31.05 75.2249 30.45 75.4499 29.775C75.2999 29.7 75.0749 29.475 74.7749 29.1L73.1999 30.675C72.7499 31.35 72.2249 31.875 71.6249 32.25C70.7249 32.475 69.9749 32.625 69.3749 32.7C66.7499 33.45 65.3249 32.175 63.5249 30.45C63.6749 30.6 63.5999 28.65 63.5249 28.2Z" fill="white"/>
</g>
<defs>
<clipPath id="clip0">
<rect width="205.275" height="60" fill="white"/>
</clipPath>
</defs>
</svg>
